# xmcd
#
# Track frame offsets:
#  150
#  16816
#  32824
#  51275
#
# Disc length: 937 seconds
#
# Revision: 0
# Processed by: cddbd v1.5.1PL2 Copyright (c) Steve Scherf et al.
# Submitted via: Collectorz.com_Music_Collector 6.9
#
DISCID=2903a704
DTITLE=The HaveNots - Learning How To Whistle EP
DYEAR=2002
DGENRE=
TTITLE0=Learning How To Whistle
TTITLE1=Kissing
TTITLE2=Shut Your Eyes
TTITLE3=1st and Last (I Hate The Summer)
EXTD=
EXTT0=
EXTT1=
EXTT2=
EXTT3=
PLAYORDER=
